{
	"asset":{
		"generator":"Khronos glTF Blender I/O v4.5.48",
		"version":"2.0"
	},
	"scene":0,
	"scenes":[
		{
			"name":"Scene",
			"nodes":[
				0
			]
		}
	],
	"nodes":[
		{
			"mesh":0,
			"name":"Mesh1",
			"rotation":[
				0.7071068286895752,
				0,
				0,
				0.7071068286895752
			]
		}
	],
	"meshes":[
		{
			"name":"Mesh1",
			"primitives":[
				{
					"attributes":{
						"POSITION":0,
						"NORMAL":1
					},
					"indices":2
				}
			]
		}
	],
	"accessors":[
		{
			"bufferView":0,
			"componentType":5126,
			"count":247222,
			"max":[
				0.5046280026435852,
				0.9932389855384827,
				0.7533959746360779
			],
			"min":[
				-0.5025500059127808,
				-1.0004600286483765,
				-0.750249981880188
			],
			"type":"VEC3"
		},
		{
			"bufferView":1,
			"componentType":5126,
			"count":247222,
			"type":"VEC3"
		},
		{
			"bufferView":2,
			"componentType":5125,
			"count":1483356,
			"type":"SCALAR"
		}
	],
	"bufferViews":[
		{
			"buffer":0,
			"byteLength":2966664,
			"byteOffset":0,
			"target":34962
		},
		{
			"buffer":0,
			"byteLength":2966664,
			"byteOffset":2966664,
			"target":34962
		},
		{
			"buffer":0,
			"byteLength":5933424,
			"byteOffset":5933328,
			"target":34963
		}
	],
	"buffers":[
		{
			"byteLength":11866752,
			"uri":"scene.bin"
		}
	]
}
